/* XPM */
static char * maximize_toggled_inactive_xpm[] = {
"18 25 3 1",
" 	c None",
".	c #C0C0FF s inactive_color_1",
"@	c #FFFFFF s inactive_text_color",
"..................",
"..................",
"..................",
"..................",
"..................",
"..................",
"..................",
"..................",
".......@@@@@@@....",
".......@@@@@@@....",
".............@....",
"....@@@@@@@..@....",
"....@@@@@@@..@....",
"....@.....@..@....",
"....@.....@.@@....",
"....@.....@.......",
"....@.....@.......",
"....@@@@@@@.......",
"..................",
"..................",
"..................",
"..................",
"..................",
"..................",
".................."};
