/* XPM */
static char * shade_prelight_xpm[] = {
"18 25 3 1",
" 	c None",
".	c #C0C0FF s active_color_1",
"@	c #FFFFFF s active_text_color",
"..................",
"..................",
"..................",
"..................",
"..................",
"..................",
"..................",
"..................",
"........@@........",
".......@@@@.......",
"......@@@@@@......",
".....@@@@@@@@.....",
"....@@..@@..@@....",
"........@@........",
"........@@........",
"........@@........",
"..................",
"..................",
"..................",
"..................",
"..................",
"..................",
"..................",
"..................",
".................."};
